<svg width="30" height="30" viewBox="0 0 30 30" fill="none" xmlns="http://www.w3.org/2000/svg">
    <path d="M0 6C0 2.68629 2.68629 0 6 0H24C27.3137 0 30 2.68629 30 6V24C30 27.3137 27.3137 30 24 30H6C2.68629 30 0 27.3137 0 24V6Z" fill="#F7F7F7" />
    <path d="M9.55866 18.0086C9.39479 18.0086 9.26071 17.9626 9.15642 17.8705C9.05214 17.7784 9 17.66 9 17.5154V4.49326C9 4.34857 9.05214 4.23019 9.15642 4.13811C9.26071 4.04604 9.39479 4 9.55866 4H12.419C12.5829 4 12.7169 4.04604 12.8212 4.13811C12.9255 4.23019 12.9777 4.34857 12.9777 4.49326V8.89315C13.3799 8.48539 13.8715 8.16313 14.4525 7.92636C15.0484 7.67644 15.7337 7.55148 16.5084 7.55148C17.3724 7.55148 18.1397 7.72248 18.8101 8.06447C19.4953 8.40647 20.0317 8.91288 20.419 9.58372C20.8063 10.2414 21 11.0503 21 12.0106V17.5154C21 17.66 20.9479 17.7784 20.8436 17.8705C20.7393 17.9626 20.6052 18.0086 20.4413 18.0086H17.5587C17.4097 18.0086 17.2756 17.9626 17.1564 17.8705C17.0521 17.7784 17 17.66 17 17.5154V12.1289C17 11.5107 16.8287 11.0372 16.486 10.7084C16.1583 10.3664 15.6667 10.1954 15.0112 10.1954C14.4004 10.1954 13.9088 10.3664 13.5363 10.7084C13.1639 11.0372 12.9777 11.5107 12.9777 12.1289V17.5154C12.9777 17.66 12.9255 17.7784 12.8212 17.8705C12.7169 17.9626 12.5829 18.0086 12.419 18.0086H9.55866Z" fill="#1E252B" />
    <path d="M24.0412 21.5899C24.6375 21.0149 24.6548 20.0653 24.0798 19.4689C23.5047 18.8726 22.5552 18.8553 21.9588 19.4304L24.0412 21.5899ZM8.04119 19.4304C7.44484 18.8553 6.49525 18.8726 5.92022 19.4689C5.34519 20.0653 5.36247 21.0149 5.95881 21.5899L8.04119 19.4304ZM21.9588 19.4304C20.8733 20.4771 19.8842 21.2289 18.8151 21.728C17.7603 22.2203 16.5557 22.5 15 22.5V25.5C16.9443 25.5 18.589 25.1442 20.084 24.4464C21.5645 23.7553 22.8254 22.7622 24.0412 21.5899L21.9588 19.4304ZM15 22.5C12.2099 22.5 9.94009 21.2614 8.04119 19.4304L5.95881 21.5899C8.23967 23.7892 11.2176 25.5 15 25.5V22.5Z" fill="#1E252B" />
</svg>