<svg xmlns="http://www.w3.org/2000/svg" width="512" height="512" x="0" y="0" viewBox="0 -3 48 48">
    <g>
        <g>
            <path d="m13.25 7.75h24c.83 0 1.5-.67 1.5-1.5s-.67-1.5-1.5-1.5h-24c-.83 0-1.5.67-1.5 1.5s.67 1.5 1.5 1.5z" fill="current"></path>
            <path d="m27.25 36.75h-1-13c-.83 0-1.5.67-1.5 1.5s.67 1.5 1.5 1.5h13 1c.83 0 1.5-.67 1.5-1.5s-.67-1.5-1.5-1.5z" fill="current"></path>
            <path d="m8.25 4.25h-2c-.55 0-1 .45-1 1v2c0 .55.45 1 1 1h2c.55 0 1-.45 1-1v-2c0-.55-.45-1-1-1z" fill="current"></path>
            <path d="m8.25 12.25h-2c-.55 0-1 .45-1 1v2c0 .55.45 1 1 1h2c.55 0 1-.45 1-1v-2c0-.55-.45-1-1-1z" fill="current"></path>
            <path d="m8.25 20.25h-2c-.55 0-1 .45-1 1v2c0 .55.45 1 1 1h2c.55 0 1-.45 1-1v-2c0-.55-.45-1-1-1z" fill="current"></path>
            <path d="m8.25 28.25h-2c-.55 0-1 .45-1 1v2c0 .55.45 1 1 1h2c.55 0 1-.45 1-1v-2c0-.55-.45-1-1-1z" fill="current"></path>
            <path d="m13.25 15.75h24c.83 0 1.5-.67 1.5-1.5s-.67-1.5-1.5-1.5h-24c-.83 0-1.5.67-1.5 1.5s.67 1.5 1.5 1.5z" fill="current"></path>
            <path d="m13.25 23.75h24c.83 0 1.5-.67 1.5-1.5s-.67-1.5-1.5-1.5h-24c-.83 0-1.5.67-1.5 1.5s.67 1.5 1.5 1.5z" fill="current"></path>
            <path d="m13.25 31.75h24c.83 0 1.5-.67 1.5-1.5s-.67-1.5-1.5-1.5h-24c-.83 0-1.5.67-1.5 1.5s.67 1.5 1.5 1.5z" fill="current"></path>
            <path d="m8.25 36.25h-2c-.55 0-1 .45-1 1v2c0 .55.45 1 1 1h2c.55 0 1-.45 1-1v-2c0-.55-.45-1-1-1z" fill="current"></path>
            <path d="m41.25 36.75h-2.5v-2.5c0-.83-.67-1.5-1.5-1.5s-1.5.67-1.5 1.5v2.5h-2.5c-.83 0-1.5.67-1.5 1.5s.67 1.5 1.5 1.5h2.5v2.5c0 .83.67 1.5 1.5 1.5s1.5-.67 1.5-1.5v-2.5h2.5c.83 0 1.5-.67 1.5-1.5s-.67-1.5-1.5-1.5z" fill="current"></path>
        </g>
    </g>
</svg>