<svg version="1.1" xmlns="http://www.w3.org/2000/svg" width="30" height="30" x="0" y="0"
    viewBox="0 0 440.321 440.321">
    <g>
        <g xmlns="http://www.w3.org/2000/svg">
            <g>
                <path
                    d="M348.374,0.001h-256C71.991-0.118,55.372,16.31,55.254,36.693c0,0,0,0.001,0,0.001v270.933    c0.016,11.639,5.459,22.604,14.72,29.653l129.067,95.787c6.226,4.497,13.657,7.023,21.333,7.253    c7.663-0.305,15.073-2.825,21.333-7.253l128-94.933c9.609-6.823,15.33-17.868,15.36-29.653V36.694    C384.725,16.572,368.495,0.343,348.374,0.001z M363.947,307.627c-0.082,4.949-2.544,9.555-6.613,12.373l-128,94.72    c-5.645,4.161-13.342,4.161-18.987,0l-128-94.72c-3.889-3.02-6.171-7.663-6.187-12.587V36.694    c-0.013-8.483,6.853-15.371,15.336-15.384c0.293,0,0.585,0.007,0.877,0.024h256c8.427,0.218,15.239,6.937,15.573,15.36V307.627z"
                    fill="current"></path>
            </g>
        </g>
        <g xmlns="http://www.w3.org/2000/svg">
            <g>
                <path
                    d="M307.627,199.467c-0.601-0.422-1.244-0.78-1.92-1.067c-2.655-7.569-9.331-13.008-17.28-14.08l-34.56-5.12l-15.573-31.36    c-3.144-7.359-9.975-12.483-17.92-13.44c-8.177,0.144-15.553,4.95-18.987,12.373l-15.147,30.933l-34.773,5.12    c-11.725,1.158-20.292,11.601-19.134,23.326c0.514,5.202,2.919,10.035,6.761,13.581l25.173,23.893l-6.187,34.133    c-1.106,8.21,2.323,16.375,8.96,21.333c3.555,2.298,7.714,3.486,11.947,3.413c3.588-0.044,7.135-0.768,10.453-2.133l30.933-15.147    l30.933,16.213l4.053,1.28c6.277,0.937,12.691-0.107,18.347-2.987c6.758-4.841,10.088-13.167,8.533-21.333l-5.547-34.347    l23.893-23.253C306.791,215.601,309.518,207.338,307.627,199.467z M256.427,233.601c-2.545,2.413-3.741,5.922-3.2,9.387    l6.613,40.107h-1.493l-34.56-18.347c-3.134-1.669-6.893-1.669-10.027,0l-35.84,18.56l7.253-39.893    c0.616-3.535-0.587-7.142-3.2-9.6l-27.733-29.227l40.107-6.187c3.487-0.466,6.52-2.621,8.107-5.76l17.92-35.627l17.92,36.053    c1.587,3.139,4.62,5.294,8.107,5.76l39.893,5.76L256.427,233.601z"
                    fill="current"></path>
            </g>
        </g>
    </g>
</svg>