<svg xmlns="http://www.w3.org/2000/svg" width="512" height="512" x="0" y="0" viewBox="0 0 32 32">
    <g>
        <path d="m30.75 14.75a4.27 4.27 0 0 0 0-6l-7.47-7.5a4.37 4.37 0 0 0 -6 0l-16 16a4.27 4.27 0 0 0 0 6l7.47 7.47a4.27 4.27 0 0 0 6 0zm-12-12a2.13 2.13 0 0 1 3 0l7.47 7.47a2.13 2.13 0 0 1 0 3l-11 11-10.48-10.45zm-5.51 26.49a2.21 2.21 0 0 1 -3 0l-7.48-7.47a2.13 2.13 0 0 1 0-3l3.47-3.47 10.49 10.47z" fill="current"></path>
        <path d="m30.93 29.87h-11.73a1.07 1.07 0 1 0 0 2.13h11.73a1.07 1.07 0 1 0 0-2.13z" fill="current"></path>
    </g>
</svg>